# xmcd
#
# Track frame offsets:
# 150
# 25912
# 49325
#
# Disc length: 964 seconds
#
#
# Revision: 2
# Processed by: cddbd v1.5.1PL2 Copyright (c) Steve Scherf et al.
# Submitted via: FreeRIP 2.945 
#
DISCID=2003c203
DTITLE=Cryptic Diffusion - Cubism
DYEAR=1900
DGENRE=Techno
TTITLE0=Cryptic Diffusion - Spring Tools
TTITLE1=Cryptic Diffusion - M-Maybe
TTITLE2=Cryptic Diffusion - Just What It Is That Makes Today's Music So Different
EXTD=
EXTT0=
EXTT1=
EXTT2=
PLAYORDER=
